<?xml version="1.0" encoding="UTF-8"?> <svg xmlns="http://www.w3.org/2000/svg" width="274.086" height="51.773" viewBox="0 0 274.086 51.773"> <g id="Group_164" data-name="Group 164" transform="translate(-216.744 468.189)"> <path id="Path_1" data-name="Path 1" d="M333.962-430.777a13.567,13.567,0,0,0-9.656,4,13.567,13.567,0,0,0-4,9.656,13.567,13.567,0,0,0,4,9.656,13.566,13.566,0,0,0,9.656,4,13.565,13.565,0,0,0,9.656-4,13.567,13.567,0,0,0,4-9.656,13.566,13.566,0,0,0-4-9.656,13.566,13.566,0,0,0-9.656-4Zm0,20.716a7.06,7.06,0,0,1-7.06-7.06,7.06,7.06,0,0,1,7.06-7.06,7.06,7.06,0,0,1,7.06,7.06,7.06,7.06,0,0,1-7.06,7.06Z" transform="translate(-72.023 -26.076)" fill="#08080c"></path> <path id="Path_2" data-name="Path 2" d="M844.167-443.139v-25.047h-1.919a4.8,4.8,0,0,0-4.8,4.8v8.485a13.574,13.574,0,0,0-6.94-1.888,13.566,13.566,0,0,0-9.656,4,13.567,13.567,0,0,0-4,9.656,13.567,13.567,0,0,0,4,9.656,13.566,13.566,0,0,0,9.657,4,13.566,13.566,0,0,0,9.654-4,13.562,13.562,0,0,0,4-9.523h0v-.136Zm-13.655,7.061a7.06,7.06,0,0,1-7.06-7.06,7.06,7.06,0,0,1,7.06-7.06,7.06,7.06,0,0,1,7.06,7.06,7.06,7.06,0,0,1-7.06,7.06Z" transform="translate(-417.635 -0.002)" fill="#08080c"></path> <path id="Path_3" data-name="Path 3" d="M426.969-468.186H425.05v38.7h6.715v-33.908A4.8,4.8,0,0,0,426.969-468.186Z" transform="translate(-144.959 -0.002)" fill="#08080c"></path> <path id="Path_4" data-name="Path 4" d="M470.284-468.186h-1.919v38.7h6.715v-33.908A4.8,4.8,0,0,0,470.284-468.186Z" transform="translate(-175.101 -0.002)" fill="#08080c"></path> <path id="Path_5" data-name="Path 5" d="M726.257-430.777a13.565,13.565,0,0,0-9.656,4,13.566,13.566,0,0,0-4,9.656,13.566,13.566,0,0,0,4,9.656,13.565,13.565,0,0,0,9.657,4,13.566,13.566,0,0,0,9.656-4,13.566,13.566,0,0,0,4-9.656,13.565,13.565,0,0,0-4-9.656A13.566,13.566,0,0,0,726.257-430.777Zm0,20.716a7.06,7.06,0,0,1-7.06-7.06,7.06,7.06,0,0,1,7.06-7.06,7.06,7.06,0,0,1,7.061,7.06,7.06,7.06,0,0,1-7.06,7.06Z" transform="translate(-345.08 -26.076)" fill="#08080c"></path> <path id="Path_6" data-name="Path 6" d="M244.054-443.455h0a13.562,13.562,0,0,0-4-9.341,13.565,13.565,0,0,0-9.656-4,13.575,13.575,0,0,0-6.94,1.888v-8.485a4.8,4.8,0,0,0-4.8-4.8h-1.918v38.7h6.715v-13.643a7.129,7.129,0,0,1,6.94-7.073,6.958,6.958,0,0,1,4.944,2.08,6.957,6.957,0,0,1,2,4.979v13.657h6.716v-13.969Z" transform="translate(0)" fill="#08080c"></path> <path id="Path_7" data-name="Path 7" d="M1055.623-430.777h-6.715v13.643a7.128,7.128,0,0,1-6.94,7.073,6.958,6.958,0,0,1-4.944-2.08,6.958,6.958,0,0,1-2-4.979v-13.657h-6.715v13.548c0,.036,0,.072,0,.108s0,.077,0,.116v.2h0a13.56,13.56,0,0,0,4,9.341,13.566,13.566,0,0,0,9.656,4,13.575,13.575,0,0,0,6.941-1.888v1.412a7.128,7.128,0,0,1-6.94,7.073,6.842,6.842,0,0,1-4.637-1.785,6.029,6.029,0,0,1-.853-1.047l-.254-.4a3.479,3.479,0,0,0-4.806-1.058l-2.623,1.677a.121.121,0,0,0-.053.076.122.122,0,0,0,.016.092l1.155,1.806a13.689,13.689,0,0,0,2.4,3.231,13.567,13.567,0,0,0,9.656,4,13.565,13.565,0,0,0,9.656-4,13.565,13.565,0,0,0,4-9.641h0v-12.892h0v-13.971Z" transform="translate(-564.792 -26.142)" fill="#08080c"></path> <path id="Path_8" data-name="Path 8" d="M527.213-426.777a13.565,13.565,0,0,0-9.656-4,13.567,13.567,0,0,0-9.656,4,13.567,13.567,0,0,0-4,9.656,13.567,13.567,0,0,0,4,9.656,13.566,13.566,0,0,0,9.657,4,13.559,13.559,0,0,0,7.626-2.324,4.794,4.794,0,0,0,4.111,2.324h1.919v-13.522h0c0-.045,0-.091,0-.136A13.566,13.566,0,0,0,527.213-426.777Zm-9.656,16.716a7.06,7.06,0,0,1-7.06-7.06,7.06,7.06,0,0,1,7.06-7.06,7.06,7.06,0,0,1,7.06,7.06,7.06,7.06,0,0,1-7.06,7.06Z" transform="translate(-199.84 -26.076)" fill="#08080c"></path> <path id="Path_9" data-name="Path 9" d="M944.613-426.777a13.565,13.565,0,0,0-9.656-4,13.566,13.566,0,0,0-9.656,4,13.565,13.565,0,0,0-4,9.656,13.565,13.565,0,0,0,4,9.656,13.566,13.566,0,0,0,9.657,4,13.56,13.56,0,0,0,7.627-2.324,4.794,4.794,0,0,0,4.111,2.324h1.919v-13.522h0c0-.045,0-.091,0-.136a13.566,13.566,0,0,0-4-9.653Zm-9.656,16.716a7.06,7.06,0,0,1-7.06-7.06,7.06,7.06,0,0,1,7.06-7.06,7.06,7.06,0,0,1,7.06,7.06,7.06,7.06,0,0,1-7.06,7.06Z" transform="translate(-490.371 -26.076)" fill="#08080c"></path> <circle id="Ellipse_1" data-name="Ellipse 1" cx="3.358" cy="3.358" r="3.358" transform="translate(336.763 -436.257)" fill="#08080c"></circle> <path id="Path_10" data-name="Path 10" d="M650.208-425.786a7.114,7.114,0,0,1-6.68-6.736v-7.114h6.391v-6.715h-6.391v-6.871h-6.716v6.871h-6.391v6.715h6.391v6.867a14.2,14.2,0,0,0,.091,1.656,13.45,13.45,0,0,0,2.858,6.878,13.606,13.606,0,0,0,10.036,5.158h3.592a.122.122,0,0,0,.122-.122v-3.114A3.48,3.48,0,0,0,650.208-425.786Z" transform="translate(-287.886 -10.409)" fill="#08080c"></path> </g> </svg> 